<svg width="26" height="20" viewBox="0 0 26 20" fill="none" xmlns="http://www.w3.org/2000/svg">
<g id="Brazil">
<rect width="25.6807" height="19.2605" transform="translate(0 0.369629)" fill="#2B9F5A"/>
<path id="Union" fill-rule="evenodd" clip-rule="evenodd" d="M12.8405 2.77734L2.40771 10L12.8405 17.2227L23.2733 10L12.8405 2.77734Z" fill="#FFD018"/>
<path id="Ellipse 5" d="M17.6556 9.9997C17.6556 12.659 15.4998 14.8148 12.8405 14.8148C10.1812 14.8148 8.02539 12.659 8.02539 9.9997C8.02539 7.34038 10.1812 5.18457 12.8405 5.18457C15.4998 5.18457 17.6556 7.34038 17.6556 9.9997Z" fill="#2E4E9D"/>
<g id="Mask Group">
<mask id="mask0_87_377" style="mask-type:alpha" maskUnits="userSpaceOnUse" x="8" y="5" width="10" height="10">
<path id="Ellipse 6" d="M17.6556 9.9997C17.6556 12.659 15.4998 14.8148 12.8405 14.8148C10.1812 14.8148 8.02539 12.659 8.02539 9.9997C8.02539 7.34038 10.1812 5.18457 12.8405 5.18457C15.4998 5.18457 17.6556 7.34038 17.6556 9.9997Z" fill="#41479B"/>
</mask>
<g mask="url(#mask0_87_377)">
<path id="Vector 5 (Stroke)" fill-rule="evenodd" clip-rule="evenodd" d="M7.28891 8.99299L7.22303 8.39472C7.15701 7.79646 7.15711 7.79645 7.15724 7.79643L7.16117 7.79601L7.17055 7.79501L7.20458 7.79153C7.23391 7.78861 7.27637 7.78454 7.33088 7.77974C7.43986 7.77014 7.59715 7.75759 7.79406 7.74542C8.18756 7.7211 8.74105 7.69816 9.3847 7.70339C10.6625 7.71377 12.3358 7.83516 13.8229 8.30033C15.2996 8.76226 16.5564 9.47637 17.4397 10.0696C17.8827 10.3672 18.2355 10.6368 18.4791 10.8335C18.6009 10.9319 18.6957 11.0122 18.761 11.0688C18.7937 11.0972 18.819 11.1196 18.8367 11.1354L18.8574 11.1541L18.8634 11.1596L18.8653 11.1614C18.8655 11.1615 18.8665 11.1625 18.4583 11.6048C18.0501 12.0471 18.0502 12.0472 18.0503 12.0473L18.0476 12.0448L18.0336 12.0322C18.0205 12.0204 17.9999 12.0022 17.9723 11.9782C17.9169 11.9302 17.833 11.859 17.7228 11.7701C17.5025 11.5921 17.1781 11.344 16.7685 11.0689C15.9464 10.5168 14.7956 9.8659 13.4635 9.44921C12.1417 9.03575 10.605 8.91712 9.37492 8.90713C8.76463 8.90217 8.23973 8.92396 7.86832 8.94691C7.68278 8.95838 7.53599 8.97011 7.43651 8.97888C7.38679 8.98326 7.34891 8.98689 7.32397 8.98938L7.29641 8.99219L7.28891 8.99299Z" fill="#F5F8FB"/>
</g>
</g>
<path id="Ellipse 7" d="M11.2351 12.0062C11.2351 12.2279 11.0555 12.4075 10.8339 12.4075C10.6123 12.4075 10.4326 12.2279 10.4326 12.0062C10.4326 11.7846 10.6123 11.605 10.8339 11.605C11.0555 11.605 11.2351 11.7846 11.2351 12.0062Z" fill="#F5F8FB"/>
<path id="Ellipse 8" d="M13.6429 12.809C13.6429 13.0306 13.4632 13.2102 13.2416 13.2102C13.02 13.2102 12.8403 13.0306 12.8403 12.809C12.8403 12.5874 13.02 12.4077 13.2416 12.4077C13.4632 12.4077 13.6429 12.5874 13.6429 12.809Z" fill="#F5F8FB"/>
<path id="Ellipse 9" d="M15.2478 12.0062C15.2478 12.2279 15.0682 12.4075 14.8466 12.4075C14.625 12.4075 14.4453 12.2279 14.4453 12.0062C14.4453 11.7846 14.625 11.605 14.8466 11.605C15.0682 11.605 15.2478 11.7846 15.2478 12.0062Z" fill="#F5F8FB"/>
</g>
</svg>
